SPORT: The Football League Show
On: BBC 1    
Date: Sunday 3rd February 2013 
Time: 00:00 to 01:15 

Manish Bhasin presents all the action from the Football League, with Malky Mackay's Cardiff side at Leeds as Neil Warnock bids to reignite United's chase for a play-off place. Leicester have been firing on all cylinders since the arrival of their prolific new striker Chris Wood, and now the Foxes are at home to Wolves. Plus action from the top of League One as Crawley entertain Swindon.


General
Complete name                            : 2013.02.02.The.Football.League.Show.pdtv.x264.mp4
Format                                   : MPEG-4
Format profile                           : Base Media
Codec ID                                 : isom
File size                                : 870 MiB
Duration                                 : 1h 14mn
Overall bit rate mode                    : Variable
Overall bit rate                         : 1 628 Kbps

Video
ID                                       : 1
Format                                   : AVC
Format/Info                              : Advanced Video Codec
Format profile                           : High@L3.1
Format settings, CABAC                   : Yes
Format settings, ReFrames                : 5 frames
Codec ID                                 : avc1
Codec ID/Info                            : Advanced Video Coding
Duration                                 : 1h 14mn
Bit rate                                 : 1 495 Kbps
Maximum bit rate                         : 6 022 Kbps
Width                                    : 704 pixels
Height                                   : 560 pixels
Display aspect ratio                     : 16:9
Original display aspect ratio            : 16:9
Frame rate mode                          : Constant
Frame rate                               : 25.000 fps
Color space                              : YUV
Chroma subsampling                       : 4:2:0
Bit depth                                : 8 bits
Scan type                                : Progressive
Bits/(Pixel*Frame)                       : 0.152
Stream size                              : 799 MiB (92%)
Writing library                          : x264 core 129 r2230 1cffe9f

Audio
ID                                       : 2
Format                                   : AAC
Format/Info                              : Advanced Audio Codec
Format profile                           : LC
Codec ID                                 : 40
Duration                                 : 1h 14mn
Bit rate mode                            : Variable
Bit rate                                 : 128 Kbps
Maximum bit rate                         : 148 Kbps
Channel(s)                               : 2 channels
Channel positions                        : Front: L R
Sampling rate                            : 48.0 KHz
Compression mode                         : Lossy
Delay relative to video                  : 80ms
Stream size                              : 68.4 MiB (8%)
Language                                 : English


